<?xml version="1.0" encoding="UTF-8"?>
<svg xmlns="http://www.w3.org/2000/svg" viewBox="0 0 512 512">
  <defs>
    <linearGradient id="g" x1="0" y1="0" x2="1" y2="1">
      <stop offset="0" stop-color="#19d26b"/>
      <stop offset="1" stop-color="#00c853"/>
    </linearGradient>
  </defs>
  <rect x="0" y="0" width="512" height="512" rx="120" fill="#0b0c0e"/>
  <rect x="44" y="44" width="424" height="424" rx="108" fill="url(#g)" opacity="0.18"/>
  <circle cx="256" cy="256" r="148" fill="none" stroke="#19d26b" stroke-width="18" opacity="0.95"/>
  <circle cx="256" cy="256" r="108" fill="none" stroke="#00c853" stroke-width="18" opacity="0.75"/>
  <path d="M290 182c0-16-13-29-30-29h-8c-17 0-30 13-30 29 0 11 6 20 17 26l42 20c21 10 33 27 33 49 0 29-24 53-54 53h-8c-30 0-54-24-54-53"
        fill="none" stroke="#eafff4" stroke-width="20" stroke-linecap="round" stroke-linejoin="round"/>
  <path d="M256 130v252" fill="none" stroke="#eafff4" stroke-width="20" stroke-linecap="round"/>
</svg>

